<?xml version="1.0" standalone="no"?>
<!DOCTYPE svg PUBLIC "-//W3C//DTD SVG 20010904//EN"
 "http://www.w3.org/TR/2001/REC-SVG-20010904/DTD/svg10.dtd">
<svg version="1.0" xmlns="http://www.w3.org/2000/svg"
 width="848.000000pt" height="71.000000pt" viewBox="0 0 848.000000 71.000000"
 preserveAspectRatio="xMidYMid meet">
<metadata>
Created by potrace 1.16, written by Peter Selinger 2001-2019
</metadata>
<g transform="translate(0.000000,71.000000) scale(0.100000,-0.100000)"
fill="#000000" stroke="none">
<path d="M3072 653 c-62 -171 -54 -333 22 -499 44 -95 72 -134 97 -134 18 0
17 4 -10 53 -80 141 -113 300 -93 443 7 47 22 109 32 138 11 28 20 52 20 54 0
1 -11 2 -24 2 -20 0 -27 -9 -44 -57z"/>
<path d="M4240 654 c64 -186 45 -390 -55 -571 -31 -57 -33 -63 -15 -63 24 0
52 40 94 132 79 172 85 341 19 516 -12 33 -21 42 -39 42 l-23 0 19 -56z"/>
<path d="M50 435 l0 -265 25 0 25 0 0 241 0 241 121 -4 c113 -3 122 -5 140
-27 27 -33 27 -123 -1 -151 -17 -17 -33 -20 -125 -20 l-105 0 0 -25 0 -25 110
0 c163 0 190 22 190 150 0 135 -22 150 -230 150 l-150 0 0 -265z"/>
<path d="M500 435 l0 -265 25 0 25 0 0 165 0 165 100 0 c94 0 103 -2 125 -25
24 -23 25 -29 25 -165 l0 -140 25 0 25 0 0 144 c0 224 -10 236 -190 236 l-110
0 0 75 c0 73 -1 75 -25 75 l-25 0 0 -265z"/>
<path d="M4580 675 c0 -25 1 -25 80 -25 l80 0 0 -240 0 -240 25 0 25 0 0 240
0 240 80 0 c79 0 80 0 80 25 l0 25 -185 0 -185 0 0 -25z"/>
<path d="M7350 435 l0 -265 25 0 25 0 0 265 0 265 -25 0 -25 0 0 -265z"/>
<path d="M3320 610 l0 -60 -35 0 c-31 0 -35 -3 -35 -25 0 -22 4 -25 35 -25
l35 0 0 -165 0 -165 25 0 25 0 0 165 0 165 40 0 c36 0 40 3 40 25 0 23 -4 25
-40 25 l-40 0 0 60 c0 57 -1 60 -25 60 -24 0 -25 -3 -25 -60z"/>
<path d="M979 535 c-37 -20 -49 -62 -49 -175 0 -170 19 -190 179 -190 55 0
111 5 125 11 41 19 56 65 56 177 0 173 -18 192 -182 192 -70 -1 -111 -5 -129
-15z m242 -64 c16 -19 19 -40 19 -113 0 -81 -2 -91 -25 -113 -22 -22 -32 -25
-105 -25 -73 0 -83 3 -105 25 -23 22 -25 32 -25 110 0 132 15 146 143 142 69
-2 81 -5 98 -26z"/>
<path d="M1418 521 l-33 -29 -3 -117 c-6 -192 7 -205 208 -205 l130 0 0 24 0
24 -131 4 c-162 4 -159 2 -159 138 0 136 4 140 130 140 110 0 120 -6 120 -69
0 -51 -20 -61 -126 -61 -87 0 -94 -1 -94 -20 0 -19 7 -20 110 -20 104 0 112 1
135 25 21 20 25 34 25 80 0 49 -4 60 -29 86 -29 29 -31 29 -140 29 -108 0
-111 -1 -143 -29z"/>
<path d="M1810 360 l0 -190 25 0 25 0 0 165 0 165 100 0 c94 0 103 -2 125 -25
24 -23 25 -29 25 -165 l0 -140 25 0 25 0 0 144 c0 229 -6 236 -215 236 l-135
0 0 -190z"/>
<path d="M2260 360 l0 -190 25 0 25 0 0 190 0 190 -25 0 -25 0 0 -190z"/>
<path d="M2431 480 c35 -39 73 -82 83 -95 l19 -24 -86 -93 c-83 -90 -85 -93
-59 -97 23 -2 39 10 103 78 l76 80 69 -79 c60 -68 73 -79 103 -79 39 -1 43 -9
-61 108 -38 42 -68 80 -68 84 0 5 36 48 80 95 79 85 80 87 53 91 -24 2 -38 -8
-99 -74 l-71 -77 -46 49 c-25 27 -55 61 -67 76 -16 20 -30 27 -57 27 l-35 0
63 -70z"/>
<path d="M3530 360 l0 -190 25 0 25 0 0 165 0 165 100 0 100 0 0 -165 0 -165
25 0 25 0 0 165 0 165 70 0 c62 0 74 -3 95 -25 24 -23 25 -29 25 -165 l0 -140
25 0 25 0 0 150 c0 94 -4 159 -12 175 -23 51 -47 55 -298 55 l-230 0 0 -190z"/>
<path d="M5008 521 l-33 -29 -3 -117 c-6 -192 7 -205 208 -205 l130 0 0 24 0
24 -131 4 c-162 4 -159 2 -159 138 0 136 4 140 130 140 110 0 120 -6 120 -69
0 -51 -20 -61 -126 -61 -87 0 -94 -1 -94 -20 0 -19 7 -20 110 -20 104 0 112 1
135 25 21 20 25 34 25 80 0 49 -4 60 -29 86 -29 29 -31 29 -140 29 -108 0
-111 -1 -143 -29z"/>
<path d="M5461 536 c-44 -24 -50 -50 -51 -213 l0 -153 25 0 25 0 0 140 c0 136
1 142 25 165 20 21 34 25 85 25 57 0 60 1 60 25 0 24 -2 25 -72 25 -41 -1 -83
-6 -97 -14z"/>
<path d="M5690 360 l0 -190 25 0 25 0 0 165 0 165 100 0 100 0 0 -165 0 -165
25 0 25 0 0 165 0 165 70 0 c62 0 74 -3 95 -25 24 -23 25 -29 25 -165 l0 -140
25 0 25 0 0 150 c0 94 -4 159 -12 175 -23 51 -47 55 -298 55 l-230 0 0 -190z"/>
<path d="M6330 360 l0 -190 25 0 25 0 0 190 0 190 -25 0 -25 0 0 -190z"/>
<path d="M6470 360 l0 -190 25 0 25 0 0 165 0 165 100 0 c94 0 103 -2 125 -25
24 -23 25 -29 25 -165 l0 -140 25 0 25 0 0 144 c0 229 -6 236 -215 236 l-135
0 0 -190z"/>
<path d="M6920 525 l0 -25 115 0 c110 0 117 -1 140 -25 23 -22 25 -32 25 -117
0 -133 -5 -138 -125 -138 -103 0 -115 7 -115 64 0 45 23 56 121 56 82 0 89 1
89 20 0 19 -7 20 -105 20 -99 0 -107 -2 -130 -25 -44 -43 -30 -150 22 -174 32
-15 205 -14 238 1 44 20 55 56 55 173 0 119 -14 164 -56 184 -14 6 -78 11
-149 11 l-125 0 0 -25z"/>
</g>
</svg>
